<svg width="106" height="18" fill="none" xmlns="http://www.w3.org/2000/svg"><path d="M8.082 2.133c.347-.806 1.49-.806 1.836 0l1.28 2.972a1 1 0 00.827.6l3.222.3c.874.08 1.227 1.167.568 1.746l-2.431 2.136a1 1 0 00-.316.972l.712 3.157c.193.856-.732 1.528-1.487 1.08l-2.782-1.653a1 1 0 00-1.022 0l-2.782 1.653c-.755.448-1.68-.224-1.487-1.08l.712-3.157a1 1 0 00-.315-.972L2.185 7.751c-.66-.579-.306-1.666.568-1.747l3.222-.298a1 1 0 00.826-.6l1.28-2.973zm21.999 0c.348-.806 1.49-.806 1.838 0l1.28 2.972a1 1 0 00.826.6l3.222.3c.874.08 1.227 1.167.568 1.746l-2.431 2.136a1 1 0 00-.316.972l.712 3.157c.192.856-.732 1.528-1.487 1.08l-2.782-1.653a1 1 0 00-1.022 0l-2.782 1.653c-.755.448-1.68-.224-1.486-1.08l.711-3.157a1 1 0 00-.316-.972l-2.431-2.136c-.66-.579-.306-1.666.568-1.747l3.222-.298a1 1 0 00.826-.6l1.28-2.973zm22 0c.348-.806 1.49-.806 1.837 0l1.28 2.972a1 1 0 00.827.6l3.222.3c.874.08 1.227 1.167.568 1.746l-2.431 2.136a1 1 0 00-.316.972l.712 3.157c.192.856-.732 1.528-1.487 1.08l-2.782-1.653a1 1 0 00-1.022 0l-2.782 1.653c-.755.448-1.68-.224-1.486-1.08l.711-3.157a1 1 0 00-.316-.972l-2.431-2.136c-.66-.579-.306-1.666.568-1.747l3.222-.298a1 1 0 00.826-.6l1.28-2.973zm22.001 0c.347-.806 1.49-.806 1.837 0l1.28 2.972a1 1 0 00.826.6l3.222.3c.874.08 1.227 1.167.568 1.746l-2.431 2.136a1 1 0 00-.316.972l.712 3.157c.192.856-.732 1.528-1.487 1.08l-2.782-1.653a1 1 0 00-1.022 0l-2.782 1.653c-.755.448-1.68-.224-1.486-1.08l.711-3.157a1 1 0 00-.316-.972l-2.431-2.136c-.66-.579-.306-1.666.568-1.747l3.222-.298a1 1 0 00.826-.6l1.28-2.973zm22 0c.347-.806 1.49-.806 1.837 0l1.28 2.972a1 1 0 00.826.6l3.222.3c.874.08 1.227 1.167.568 1.746l-2.432 2.136a.999.999 0 00-.315.972l.712 3.157c.192.856-.732 1.528-1.487 1.08l-2.782-1.653a1 1 0 00-1.022 0l-2.782 1.653c-.755.448-1.68-.224-1.486-1.08l.711-3.157a1 1 0 00-.316-.972l-2.431-2.136c-.66-.579-.306-1.666.568-1.747l3.222-.298a1 1 0 00.826-.6l1.28-2.973z" fill="#FF3E18"/></svg>