<svg width="183" height="36" fill="none" xmlns="http://www.w3.org/2000/svg"><path d="M7.543 6.005v1.082l-5.955 1.71c-.391.128-.71.192-.956.192C.21 8.989 0 8.776 0 8.352c0-.576.268-1.268.803-2.075.541-.812 1.227-1.589 2.057-2.329.83-.74 1.64-1.298 2.427-1.674.897-.424 1.916-.782 3.059-1.073a34.067 34.067 0 013.582-.7A44.27 44.27 0 0115.51.117 48.294 48.294 0 0118.812 0c2.533 0 4.385.53 5.558 1.592 1.173 1.055 1.76 2.241 1.76 3.557 0 1.59-.75 2.909-2.247 3.958a16.207 16.207 0 01-4.881 2.31c-1.75.492-3.525.898-5.324 1.22-.571.103-1.302.242-2.192.418-.884.176-1.57.31-2.057.4v.192c1.1.254 2.764.712 4.99 1.373 1.449.45 2.583.84 3.4 1.174a6.834 6.834 0 012.166 1.383c.626.588.939 1.313.939 2.174 0 .77-.434 1.583-1.3 2.438-.866.856-2.006 1.656-3.42 2.402a23.817 23.817 0 01-4.466 1.793c-1.563.448-3.001.673-4.312.673-1.54 0-2.833-.243-3.88-.728-1.047-.485-1.814-1.083-2.3-1.792-.482-.71-.723-1.398-.723-2.065 0-.904.518-2.102 1.552-3.594a44.974 44.974 0 013.357-4.267c-1.09-.164-1.91-.33-2.464-.5-.547-.176-.82-.495-.82-.956 0-.479.234-.797.703-.955.475-.157.93-.236 1.363-.236.547-.019 1.84-.155 3.88-.41 1.557-1.534 2.787-2.66 3.69-3.375.908-.722 1.57-1.162 1.984-1.32a4.918 4.918 0 011.462-.3c.217-.012.418-.03.605-.054a6.27 6.27 0 01.388-.055 64.31 64.31 0 01-.677.674 30.393 30.393 0 01-1.128 1.082c-.896.764-1.982 1.88-3.257 3.348 2.947-.364 5.326-.84 7.137-1.428 1.817-.595 3.095-1.216 3.835-1.865.745-.655 1.118-1.295 1.118-1.92 0-1.765-1.245-2.647-3.735-2.647-.89 0-2.147.1-3.771.3-1.619.194-3.21.47-4.773.828-1.564.358-2.707.752-3.43 1.183zm.55 9.088c-.685.789-1.314 1.72-1.885 2.793-.566 1.074-.849 1.996-.849 2.766 0 .57.331 1.086.993 1.547.662.454 1.5.682 2.517.682 1.107 0 2.32-.203 3.636-.61 1.318-.406 2.433-.906 3.348-1.5.914-.595 1.371-1.156 1.371-1.684 0-.94-.878-1.713-2.634-2.32-1.757-.606-3.922-1.164-6.497-1.674zm18.046 7.788c1.25-1.304 3.064-2.966 5.44-4.986 2.857-2.39 4.692-3.584 5.504-3.584.481 0 .791.124.93.373.144.243.216.591.216 1.046 0 .4-.172.91-.514 1.529-.307.57-.599 1.06-.876 1.473-.276.407-.568.807-.875 1.201a10.83 10.83 0 00-.595.8.793.793 0 00-.136.438c0 .2.076.3.226.3a.44.44 0 00.28-.1c.084-.067.294-.258.631-.573.343-.322.746-.686 1.21-1.092.468-.407 1.127-.95 1.975-1.629a23.03 23.03 0 011.796-1.31c.565-.37 1.061-.676 1.489-.919.427-.242.76-.43 1.001-.564.36-.176.647-.264.857-.264.277 0 .547.276.812.828.27.546.406.992.406 1.338 0 .248-.198.546-.595.891-1.161 1.068-2 2.032-2.518 2.893-.51.856-.767 1.544-.767 2.066 0 .746.37 1.119 1.11 1.119.824 0 1.907-.622 3.248-1.865.295-.225.506-.337.632-.337.12 0 .204.049.253.146v.336c-.127.485-.695 1.177-1.706 2.075a24.97 24.97 0 01-3.22 2.41c-1.138.716-1.923 1.074-2.356 1.074a1.93 1.93 0 01-1.19-.41c-.361-.266-.542-.64-.542-1.119 0-1.018.295-2.125.884-3.32.301-.607.599-1.14.893-1.601.32-.516.479-.889.479-1.12 0-.145-.112-.218-.334-.218-.229 0-.818.388-1.769 1.165-.95.776-1.642 1.367-2.075 1.774-.92.904-1.66 1.628-2.22 2.174-.553.546-1.025.962-1.416 1.247-.39.279-.755.418-1.092.418-.198 0-.397-.112-.595-.337-.199-.23-.298-.54-.298-.927 0-.607.358-1.49 1.074-2.648.276-.449.568-.898.875-1.346.313-.455.52-.78.623-.974.108-.194.162-.364.162-.51 0-.4-.27-.6-.812-.6-.53 0-1.128.261-1.796.783-.661.521-1.515 1.34-2.562 2.456-.505.534-1.056 1.228-1.651 2.083-.59.85-.987 1.398-1.191 1.647-.199.249-.433.373-.704.373-.373 0-.713-.255-1.02-.764-.306-.51-.46-1.422-.46-2.739 0-.843.063-1.516.19-2.02a4.86 4.86 0 01.604-1.4c.271-.431.746-1.092 1.426-1.984.812-1.067 1.468-1.81 1.967-2.229.5-.424 1.149-.637 1.949-.637.276 0 .493.076.65.228.156.146.234.303.234.473 0 .237-.247.637-.74 1.201-.523.528-1.263 1.362-2.22 2.502-.956 1.14-1.434 1.871-1.434 2.192 0 .292.084.65.253 1.074zm7.398-9.089c-.246-.248-.37-.758-.37-1.528 0-.685.424-1.347 1.272-1.983.849-.637 1.89-1.195 3.122-1.674a25.699 25.699 0 013.654-1.138c1.203-.279 2.13-.418 2.78-.418.77 0 1.332.133 1.687.4.354.267.532.555.532.864a.552.552 0 01-.081.264l-1.065 1.783c-.65-.297-1.672-.445-3.068-.445-.794 0-1.75.154-2.869.464a13.934 13.934 0 00-3.22 1.346c-1.023.582-1.814 1.27-2.374 2.065zm24.74 1.565c.788.243 1.182.925 1.182 2.047 0 .394-.063.831-.19 1.31-.258 1.104-.712 2.196-1.362 3.275a.5.5 0 00-.117.3c0 .183.087.334.262.455.174.122.37.183.586.183.289 0 .61-.113.966-.337.355-.225.565-.337.631-.337.27 0 .406.085.406.255 0 .206-.207.488-.622.846-.41.352-.96.667-1.651.946a5.943 5.943 0 01-2.202.41c-1.474 1.813-3.089 2.72-4.845 2.72-.866 0-1.606-.28-2.22-.837a5.224 5.224 0 01-1.362-2.102c-.295-.837-.442-1.646-.442-2.429 0-1.316.544-2.65 1.633-4.003a14.737 14.737 0 013.852-3.366c1.48-.898 2.695-1.346 3.646-1.346.48 0 .938.127 1.371.382.44.254.659.488.659.7 0 .176-.024.361-.072.555-.03.049-.067.173-.109.373zm-3.365 8.234a3.691 3.691 0 01-.406-1.674c0-.631.135-1.277.406-1.938.288-.789.55-1.435.785-1.938.24-.51.36-.807.36-.892 0-.097-.063-.182-.189-.254a.668.668 0 00-.37-.119c-.33 0-.866.264-1.606.792-.734.521-1.332 1.016-1.795 1.483-.764.794-1.33 1.52-1.697 2.174-.367.655-.55 1.432-.55 2.33 0 1.067.614 1.6 1.84 1.6.963 0 2.037-.521 3.222-1.564z" fill="#FF3E18"/><path d="M66.966 16.74l-5.72 5.067c-.373.346-.632.519-.776.519-.169 0-.268-.049-.298-.146v-.3c.042-.127.373-.512.992-1.155.626-.65 2.094-2.114 4.403-4.394a33.418 33.418 0 003.664-4.24c1.082-1.486 1.75-2.368 2.003-2.647.258-.28.746-.419 1.461-.419.235 0 .49.064.767.191.277.121.415.255.415.4 0 .049-.024.088-.072.119-2.346 3.105-4.057 5.577-5.134 7.414a60.339 60.339 0 01-1.11 1.856c.5-.515 1.216-1.14 2.148-1.874a25.903 25.903 0 012.797-1.92c.932-.545 1.648-.818 2.147-.818.5 0 .927.163 1.281.491.355.327.533.846.533 1.556 0 .891-.337 1.847-1.01 2.865a16.148 16.148 0 01-2.419 2.84 25.009 25.009 0 01-2.743 2.264c.668.304 1.456.455 2.364.455 1.029 0 1.925-.251 2.69-.755.769-.51 1.34-1.004 1.713-1.483.229-.248.388-.373.479-.373.222 0 .333.073.333.219 0 .376-.517 1.073-1.551 2.092a11.499 11.499 0 01-2.707 1.892 14.527 14.527 0 01-3.15 1.183c-1.058.26-2.014.391-2.868.391-1.324 0-2.653-.485-3.988-1.455a164.023 164.023 0 00-1.913 4.303c-.493 1.17-.906 2.138-1.236 2.902-.331.764-.593 1.256-.785 1.474a.912.912 0 01-.722.337c-.283 0-.502-.164-.659-.492-.156-.327-.234-.71-.234-1.146 0-.34.37-1.956 1.11-4.85.866-1.594 2.023-3.035 3.473-4.32l4.322-8.043zm-1.804 7.005c.553-.248 1.082-.373 1.587-.373.518 0 1.158.185 1.922.555a13.434 13.434 0 002.58-2.502c.777-.976 1.234-1.731 1.372-2.265v-.564c-.144-.394-.45-.591-.92-.591-.704 0-1.687.582-2.95 1.746a29.955 29.955 0 00-3.591 3.994zm15.879-5.113c-.944.249-1.843.373-2.697.373-.32 0-.479-.197-.479-.591 0-.127.06-.228.18-.3.121-.073.362-.173.723-.3.367-.128.685-.25.956-.364.27-.116.626-.316 1.065-.6a54.76 54.76 0 003.582-2.54c.355-.254.82-.645 1.398-1.173.584-.534.98-.8 1.191-.8.343 0 .674.178.993.536.325.352.571.931.74 1.738-1.258.776-2.178 1.377-2.761 1.801-.578.419-1.008.789-1.29 1.11-.277.322-.638.816-1.083 1.483a12.8 12.8 0 00-1.083 1.865c-.265.577-.397 1.274-.397 2.093 0 1.213.27 1.82.812 1.82.337 0 .683-.25 1.038-.747 0-1.28.21-2.34.631-3.184.421-.843.927-1.459 1.516-1.847.596-.394 1.149-.591 1.66-.591.223 0 .448.13.677.391.234.255.352.67.352 1.247a4.2 4.2 0 01-.109.855c1.294-.698 3.08-2.772 5.36-6.223.367-.546.686-.819.956-.819.229 0 .458.24.686.719.235.473.352.891.352 1.255 0 .31-.093.586-.28.828-.18.243-.541.637-1.083 1.183-.848.885-1.536 1.695-2.066 2.429-.523.728-.785 1.51-.785 2.347 0 1.043.334 1.565 1.002 1.565.914 0 1.861-.473 2.842-1.42.283-.272.493-.409.632-.409.294 0 .442.088.442.264 0 .394-.617 1.177-1.85 2.348-1.107 1.018-1.973 1.761-2.599 2.228-.619.473-1.257.71-1.912.71-.572 0-1.029-.185-1.372-.555-.337-.364-.505-.849-.505-1.456 0-1.4.295-2.653.884-3.757a2.549 2.549 0 01-1.037.628 6.686 6.686 0 00-.307.136 3.158 3.158 0 01-.136.055c-.396.618-.935 1.243-1.614 1.874-.68.63-1.357 1.146-2.03 1.547-.668.4-1.204.6-1.607.6-.56 0-1.13-.494-1.714-1.483-.577-.989-.866-2.095-.866-3.32 0-1.026.33-2.208.992-3.549zm18.957 3.212c0 1.959.725 2.938 2.174 2.938.897 0 2.142-.521 3.736-1.564a22.492 22.492 0 001.606-1.128c.397-.316.649-.474.758-.474.15 0 .225.188.225.564 0 .164-.421.698-1.263 1.602a26.999 26.999 0 01-3.356 2.947c-1.251.94-2.461 1.41-3.627 1.41-.993 0-1.832-.379-2.518-1.137-.686-.752-1.028-1.801-1.028-3.148 0-1.073.285-2.25.857-3.53a15.191 15.191 0 012.264-3.593c.945-1.116 1.982-2.02 3.113-2.711 1.131-.698 2.232-1.046 3.303-1.046.8 0 1.362.19 1.687.573.325.376.487.794.487 1.255 0 .789-.433 1.698-1.299 2.73-.86 1.024-1.949 1.946-3.266 2.765-1.318.813-2.602 1.328-3.853 1.547zm0-1.383c.644-.176 1.395-.537 2.256-1.083.86-.546 1.591-1.14 2.192-1.783.602-.649.902-1.21.902-1.683 0-.643-.258-.964-.776-.964-.836 0-1.723.615-2.661 1.846-.939 1.226-1.576 2.448-1.913 3.667zm23.985-3.721l-5.72 5.067c-.373.346-.632.519-.776.519-.169 0-.268-.049-.298-.146v-.3c.042-.127.373-.512.992-1.155.626-.65 2.094-2.114 4.403-4.394a33.41 33.41 0 003.664-4.24c1.082-1.486 1.75-2.368 2.003-2.647.258-.28.745-.419 1.461-.419.235 0 .491.064.767.191.277.121.415.255.415.4 0 .049-.024.088-.072.119-2.346 3.105-4.057 5.577-5.134 7.414a60.548 60.548 0 01-1.11 1.856c.5-.515 1.215-1.14 2.148-1.874a25.795 25.795 0 012.797-1.92c.932-.545 1.648-.818 2.147-.818.499 0 .927.163 1.281.491.355.327.533.846.533 1.556 0 .891-.337 1.847-1.011 2.865a16.13 16.13 0 01-2.418 2.84 24.897 24.897 0 01-2.743 2.264c.668.304 1.456.455 2.364.455 1.029 0 1.925-.251 2.689-.755.77-.51 1.341-1.004 1.714-1.483.229-.248.388-.373.478-.373.223 0 .334.073.334.219 0 .376-.517 1.073-1.552 2.092a11.508 11.508 0 01-2.706 1.892 14.549 14.549 0 01-3.149 1.183c-1.059.26-2.015.391-2.87.391-1.323 0-2.652-.485-3.988-1.455a166.373 166.373 0 00-1.912 4.303c-.494 1.17-.906 2.138-1.236 2.902-.331.764-.593 1.256-.785 1.474a.913.913 0 01-.722.337c-.283 0-.502-.164-.659-.492-.156-.327-.234-.71-.234-1.146 0-.34.369-1.956 1.109-4.85.867-1.594 2.024-3.035 3.474-4.32l4.322-8.043zm-1.805 7.005c.554-.248 1.083-.373 1.588-.373.518 0 1.158.185 1.922.555a13.419 13.419 0 002.581-2.502c.776-.976 1.233-1.731 1.371-2.265v-.564c-.144-.394-.451-.591-.92-.591-.704 0-1.687.582-2.951 1.746a29.982 29.982 0 00-3.591 3.994z" fill="#FF3E18"/><path d="M138.284 20.124c-.331.583-.551 1.004-.659 1.265-.102.26-.153.561-.153.9 0 .286.063.52.189.701.127.176.259.264.397.264.127 0 .566-.246 1.318-.737.751-.491 1.263-.84 1.533-1.046a43.459 43.459 0 002.969-2.411 59.799 59.799 0 002.707-2.557 909.02 909.02 0 002.418-2.447c.18-.224.364-.336.55-.336.223 0 .406.154.55.463.151.304.226.62.226.947 0 .533-.235 1.18-.704 1.937l-5.359 8.58c-.397.63-.605.988-.623 1.073v.264c.072.073.121.11.145.11.198 0 .445-.137.739-.41l5.062-4.394c.343-.304.578-.476.704-.519h.334c.12.043.18.127.18.255 0 .14-.096.315-.289.527l-6.505 6.851c-.716.758-1.642 1.82-2.779 3.184-1.137 1.365-1.913 2.275-2.328 2.73-.415.455-.746.682-.992.682-.343 0-.514-.83-.514-2.493 0-.176.039-.349.117-.518.078-.164.246-.464.505-.901.265-.43.511-.852.74-1.265l3.474-6.377c.126-.255.189-.452.189-.592 0-.151-.051-.227-.153-.227-.072 0-.157.052-.253.155-.553.485-1.425 1.14-2.616 1.965-1.191.825-1.982 1.237-2.373 1.237-.403 0-.864-.576-1.381-1.729-.511-1.158-.767-1.998-.767-2.52 0-1.77.701-3.584 2.103-5.44.258-.352.727-.877 1.407-1.574a19.94 19.94 0 012.084-1.883c.716-.552 1.266-.828 1.651-.828.361 0 .698.145 1.011.437.313.29.469.567.469.827 0 .346-.307.95-.92 1.81a17.545 17.545 0 01-2.166 2.485c-.83.794-1.576 1.313-2.237 1.555zm16.656 2.984l-2.96 3.649c-.12.151-.219.227-.298.227-.186 0-.382-.337-.586-1.01-.199-.673-.298-1.628-.298-2.866 0-.618.024-1.08.072-1.383.121-.927.566-2.128 1.336-3.602.77-1.48 1.594-2.793 2.472-3.94.884-1.152 1.501-1.728 1.85-1.728.228 0 .439.285.631.855a5.41 5.41 0 01.289 1.747c0 .37-.066.667-.199.891-.126.219-.418.543-.875.974a16.599 16.599 0 00-2.165 2.611c-.65.964-.975 1.859-.975 2.684 0 .127.027.3.082.518a36.141 36.141 0 014.357-4.74c1.576-1.43 3.017-2.55 4.322-3.357 1.306-.812 2.253-1.219 2.842-1.219.289 0 .572.161.849.482.276.322.415.795.415 1.42 0 2.232-.557 3.796-1.67 4.694-.487 0-.992-.112-1.515-.337-.518-.23-.776-.503-.776-.818 0-.06.021-.122.063-.182a.692.692 0 01.126-.155c.048-.036.108-.085.181-.145.282-.14.469-.377.559-.71v-.41c-.084-.224-.283-.336-.596-.336-.613 0-1.482.48-2.607 1.437-1.119.959-2.021 1.86-2.707 2.702.572.195 1.05.464 1.435.81.391.346.812.807 1.263 1.383.481.637.854 1.083 1.119 1.337.27.255.562.383.875.383.674 0 1.943-.722 3.807-2.166.632-.473.987-.71 1.065-.71.078 0 .148.043.208.128s.09.167.09.246c0 .272-.394.846-1.182 1.72-.788.872-1.417 1.506-1.886 1.9-1.666 1.238-3.007 1.856-4.024 1.856-.842 0-1.519-.276-2.03-.828-.511-.551-.968-1.255-1.371-2.11-.343-.673-.605-1.125-.785-1.356-.181-.23-.449-.412-.803-.546zm20.192-.964c-.625.8-1.266 1.556-1.922 2.265a16.047 16.047 0 01-2.066 1.875c-.722.54-1.338.81-1.849.81-.632 0-1.167-.516-1.606-1.547-.434-1.032-.65-2.23-.65-3.594 0-.843.361-1.935 1.083-3.275a15.176 15.176 0 012.58-3.521c.999-1.007 1.871-1.51 2.617-1.51.403 0 .761.085 1.073.254.319.17.479.358.479.565 0 .333-.235.821-.704 1.464a13.567 13.567 0 01-1.705 1.902c-.674.624-1.3 1.091-1.877 1.4-.439.25-.734.422-.884.52-.127.357-.19.77-.19 1.237.03.54.141.985.334 1.337.192.346.451.519.776.519.307 0 .824-.234 1.552-.7.716-.45 1.467-1.072 2.255-1.866l6.578-6.56c.271-.272.481-.409.632-.409.589 0 .896.682.92 2.047v.337a.72.72 0 01-.144.446l-3.294 3.611c-.812.898-1.218 1.832-1.218 2.802 0 1.02.322 1.529.966 1.529.306 0 .736-.13 1.29-.391a9.517 9.517 0 001.48-.846 5.26 5.26 0 00.469-.282c.234-.152.436-.28.604-.383.193 0 .289.098.289.292 0 .181-.46.73-1.38 1.646a24.232 24.232 0 01-2.996 2.53c-1.077.77-1.919 1.155-2.526 1.155-.421 0-.779-.173-1.074-.519-.295-.345-.442-.867-.442-1.564 0-.928.183-2.12.55-3.576z" fill="#FF3E18"/></svg>