<svg width="183" height="36" viewBox="0 0 183 36" fill="none" xmlns="http://www.w3.org/2000/svg">
<path d="M7.54293 6.00455V7.08719L1.58798 8.79757C1.197 8.92494 0.878204 8.98863 0.631585 8.98863C0.210528 8.98863 0 8.77635 0 8.35178C0 7.77559 0.267672 7.08415 0.803015 6.27748C1.34437 5.46475 2.03009 4.6884 2.86018 3.94845C3.69026 3.20849 4.49929 2.65049 5.28727 2.27445C6.18352 1.84989 7.20307 1.49204 8.34594 1.20091C9.49482 0.90978 10.6888 0.67627 11.9279 0.500379C13.1731 0.318423 14.3671 0.191054 15.5099 0.118271C16.6588 0.0394238 17.7596 0 18.8122 0C21.3446 0 23.1972 0.530705 24.3702 1.59212C25.5431 2.64746 26.1296 3.83321 26.1296 5.14936C26.1296 6.73844 25.3807 8.05762 23.8829 9.1069C22.3852 10.1501 20.7581 10.9204 19.0017 11.4177C17.2513 11.909 15.4768 12.3154 13.6783 12.6368C13.1069 12.74 12.3761 12.8795 11.4858 13.0553C10.6016 13.2312 9.91588 13.3647 9.42866 13.4556V13.6467C10.5294 13.9014 12.1926 14.3594 14.4182 15.0205C15.8678 15.4693 17.0017 15.8605 17.8197 16.1941C18.6438 16.5277 19.3656 16.9886 19.9851 17.577C20.6107 18.1653 20.9235 18.8901 20.9235 19.7513C20.9235 20.5216 20.4904 21.3343 19.6242 22.1895C18.7581 23.0447 17.6182 23.8453 16.2047 24.5914C14.7971 25.3313 13.3084 25.9287 11.7385 26.3836C10.1745 26.8324 8.73692 27.0569 7.42563 27.0569C5.88577 27.0569 4.59252 26.8143 3.5459 26.329C2.49927 25.8438 1.73235 25.2464 1.24512 24.5368C0.763917 23.8271 0.523313 23.1387 0.523313 22.4716C0.523313 21.5679 1.04061 20.37 2.07521 18.8779C3.1098 17.3859 4.22861 15.9636 5.43163 14.6111C4.3429 14.4473 3.52184 14.2805 2.96845 14.1107C2.42108 13.9348 2.14739 13.6164 2.14739 13.1554C2.14739 12.6763 2.38198 12.3578 2.85115 12.2002C3.32635 12.0425 3.78049 11.9636 4.21357 11.9636C4.76095 11.9454 6.05419 11.8089 8.09331 11.5542C9.65122 10.0197 10.8813 8.89462 11.7836 8.17892C12.6918 7.45716 13.3535 7.01744 13.7685 6.85974C14.1896 6.69598 14.6768 6.59591 15.2302 6.55951C15.4468 6.54738 15.6483 6.52919 15.8347 6.50493C16.0212 6.4746 16.1505 6.45641 16.2227 6.45034C15.9761 6.69902 15.7505 6.92343 15.546 7.12358C15.3475 7.32373 15.14 7.52691 14.9234 7.73313C14.7069 7.93328 14.5385 8.09098 14.4182 8.20622C13.5219 8.97043 12.4362 10.0864 11.161 11.5542C14.1084 11.1903 16.4874 10.7142 18.2979 10.1259C20.1145 9.53146 21.3927 8.90978 22.1325 8.2608C22.8784 7.60576 23.2513 6.96588 23.2513 6.34117C23.2513 4.57619 22.0062 3.69371 19.516 3.69371C18.6257 3.69371 17.3686 3.79378 15.7445 3.99394C14.1264 4.18802 12.5355 4.46399 10.9715 4.82183C9.40761 5.17968 8.26474 5.57392 7.54293 6.00455ZM8.09331 15.0933C7.40759 15.8817 6.77901 16.8127 6.20758 17.8863C5.64216 18.9598 5.35945 19.8817 5.35945 20.652C5.35945 21.2221 5.69028 21.7377 6.35194 22.1986C7.0136 22.6535 7.8527 22.881 8.86926 22.881C9.97603 22.881 11.1881 22.6778 12.5054 22.2714C13.8227 21.8651 14.9385 21.3647 15.8528 20.7703C16.7671 20.1759 17.2242 19.6149 17.2242 19.0872C17.2242 18.1471 16.346 17.3738 14.5896 16.7672C12.8332 16.1607 10.6678 15.6027 8.09331 15.0933Z" fill="#FF3E18"/>
<path d="M26.1386 22.881C27.3897 21.577 29.2033 19.9151 31.5792 17.8954C34.4364 15.5057 36.271 14.3108 37.083 14.3108C37.5643 14.3108 37.874 14.4352 38.0124 14.6839C38.1567 14.9265 38.2289 15.2752 38.2289 15.7301C38.2289 16.1304 38.0575 16.6399 37.7146 17.2585C37.4079 17.8287 37.1161 18.3199 36.8394 18.7324C36.5627 19.1387 36.271 19.539 35.9642 19.9333C35.6575 20.3215 35.459 20.5883 35.3687 20.7339C35.2785 20.8734 35.2334 21.019 35.2334 21.1706C35.2334 21.3707 35.3086 21.4708 35.459 21.4708C35.5612 21.4708 35.6545 21.4375 35.7387 21.3707C35.8229 21.304 36.0334 21.113 36.3703 20.7976C36.7131 20.4761 37.1161 20.1122 37.5793 19.7058C38.0485 19.2995 38.7071 18.7566 39.5553 18.0773C40.1929 17.5679 40.7914 17.1312 41.3508 16.7672C41.9162 16.3973 42.4124 16.091 42.8395 15.8484C43.2666 15.6058 43.6004 15.4177 43.841 15.2843C44.2019 15.1084 44.4876 15.0205 44.6982 15.0205C44.9749 15.0205 45.2455 15.2964 45.5102 15.8484C45.7809 16.3942 45.9162 16.84 45.9162 17.1857C45.9162 17.4344 45.7177 17.7316 45.3207 18.0773C44.1598 19.1448 43.3207 20.1092 42.8034 20.9704C42.2921 21.8256 42.0365 22.514 42.0365 23.0356C42.0365 23.7817 42.4064 24.1547 43.1463 24.1547C43.9703 24.1547 45.053 23.533 46.3944 22.2896C46.6892 22.0652 46.8997 21.953 47.026 21.953C47.1463 21.953 47.2305 22.0015 47.2786 22.0986V22.4352C47.1523 22.9204 46.5839 23.6118 45.5734 24.5095C44.5628 25.4011 43.4891 26.2047 42.3523 26.9204C41.2154 27.6361 40.4304 27.9939 39.9974 27.9939C39.5643 27.9939 39.1673 27.8575 38.8064 27.5845C38.4455 27.3177 38.265 26.9447 38.265 26.4655C38.265 25.4466 38.5598 24.3397 39.1492 23.1448C39.45 22.5383 39.7477 22.0045 40.0425 21.5436C40.3613 21.0281 40.5207 20.655 40.5207 20.4246C40.5207 20.279 40.4094 20.2062 40.1868 20.2062C39.9583 20.2062 39.3688 20.5944 38.4184 21.3707C37.468 22.1471 36.7763 22.7384 36.3432 23.1448C35.4229 24.0485 34.683 24.7733 34.1236 25.3192C33.5702 25.865 33.098 26.2805 32.7071 26.5656C32.3161 26.8446 31.9522 26.9841 31.6153 26.9841C31.4168 26.9841 31.2183 26.8719 31.0198 26.6475C30.8213 26.417 30.7221 26.1077 30.7221 25.7195C30.7221 25.113 31.08 24.2305 31.7958 23.072C32.0725 22.6232 32.3642 22.1744 32.671 21.7255C32.9838 21.2707 33.1913 20.9462 33.2935 20.7521C33.4018 20.558 33.4559 20.3882 33.4559 20.2426C33.4559 19.8423 33.1853 19.6422 32.6439 19.6422C32.1146 19.6422 31.5161 19.903 30.8484 20.4246C30.1867 20.9462 29.3326 21.765 28.286 22.881C27.7807 23.4147 27.2303 24.1092 26.6348 24.9644C26.0454 25.8135 25.6484 26.3624 25.4438 26.6111C25.2453 26.8597 25.0108 26.9841 24.7401 26.9841C24.3671 26.9841 24.0273 26.7293 23.7205 26.2199C23.4138 25.7104 23.2604 24.7976 23.2604 23.4814C23.2604 22.6384 23.3235 21.9651 23.4498 21.4617C23.5822 20.9522 23.7837 20.4852 24.0544 20.0607C24.325 19.63 24.8002 18.9689 25.4799 18.0773C26.292 17.0099 26.9476 16.2669 27.4469 15.8484C27.9461 15.4238 28.5958 15.2115 29.3958 15.2115C29.6725 15.2115 29.889 15.2873 30.0454 15.439C30.2018 15.5845 30.28 15.7422 30.28 15.9121C30.28 16.1486 30.0334 16.5489 29.5401 17.113C29.0168 17.6406 28.277 18.4746 27.3206 19.6149C26.3642 20.7551 25.886 21.486 25.886 21.8074C25.886 22.0986 25.9702 22.4564 26.1386 22.881ZM33.5372 13.7923C33.2905 13.5436 33.1672 13.0341 33.1672 12.2638C33.1672 11.5785 33.5913 10.9174 34.4394 10.2805C35.2875 9.64367 36.3282 9.08567 37.5612 8.60652C38.8004 8.1213 40.0184 7.74223 41.2154 7.4693C42.4184 7.1903 43.3448 7.0508 43.9944 7.0508C44.7643 7.0508 45.3267 7.18423 45.6816 7.4511C46.0365 7.71797 46.214 8.00607 46.214 8.31539C46.214 8.39424 46.1869 8.48218 46.1328 8.57923L45.0681 10.3624C44.4185 10.0652 43.3959 9.9166 42.0004 9.9166C41.2064 9.9166 40.25 10.0713 39.1312 10.3806C38.0124 10.6899 36.9387 11.1387 35.9101 11.7271C34.8875 12.3093 34.0966 12.9977 33.5372 13.7923Z" fill="#FF3E18"/>
<path d="M58.2772 15.3571C59.0652 15.5997 59.4592 16.282 59.4592 17.4041C59.4592 17.7983 59.396 18.235 59.2697 18.7142C59.0111 19.818 58.5569 20.9098 57.9073 21.9894C57.8291 22.0925 57.79 22.1926 57.79 22.2896C57.79 22.4716 57.8772 22.6232 58.0517 22.7445C58.2261 22.8658 58.4216 22.9265 58.6381 22.9265C58.9269 22.9265 59.2487 22.8143 59.6036 22.5898C59.9585 22.3654 60.169 22.2532 60.2351 22.2532C60.5058 22.2532 60.6412 22.3381 60.6412 22.508C60.6412 22.7142 60.4336 22.9962 60.0186 23.3541C59.6096 23.7058 59.0592 24.0212 58.3675 24.3002C57.6757 24.5732 56.9419 24.7096 56.1659 24.7096C54.6922 26.5231 53.0772 27.4299 51.3208 27.4299C50.4546 27.4299 49.7147 27.1509 49.1012 26.5929C48.4937 26.0288 48.0395 25.3283 47.7388 24.4913C47.4441 23.6543 47.2967 22.8446 47.2967 22.0622C47.2967 20.746 47.841 19.4117 48.9298 18.0591C50.0245 16.7066 51.3087 15.5845 52.7824 14.693C54.2622 13.7953 55.4772 13.3465 56.4276 13.3465C56.9088 13.3465 57.3659 13.4738 57.799 13.7286C58.2381 13.9833 58.4577 14.2168 58.4577 14.4291C58.4577 14.605 58.4336 14.79 58.3855 14.9841C58.3554 15.0326 58.3193 15.1569 58.2772 15.3571ZM54.9118 23.5906C54.6411 23.0508 54.5058 22.4928 54.5058 21.9166C54.5058 21.2858 54.6411 20.6399 54.9118 19.9788C55.2005 19.1903 55.4622 18.5444 55.6968 18.0409C55.9374 17.5315 56.0577 17.2343 56.0577 17.1494C56.0577 17.0523 55.9945 16.9674 55.8682 16.8946C55.7479 16.8158 55.6246 16.7763 55.4983 16.7763C55.1674 16.7763 54.6321 17.0402 53.8922 17.5679C53.1584 18.0895 52.5599 18.5838 52.0967 19.0508C51.3328 19.8453 50.7674 20.5701 50.4005 21.2252C50.0335 21.8802 49.8501 22.6566 49.8501 23.5542C49.8501 24.6217 50.4636 25.1554 51.6907 25.1554C52.6531 25.1554 53.7268 24.6338 54.9118 23.5906Z" fill="#FF3E18"/>
<path d="M66.966 16.74L61.2457 21.8074C60.8727 22.1531 60.6141 22.326 60.4697 22.326C60.3013 22.326 60.2021 22.2775 60.172 22.1804V21.8802C60.2141 21.7528 60.5449 21.3677 61.1645 20.7248C61.79 20.0758 63.2577 18.6111 65.5675 16.3306C66.933 14.9901 68.154 13.577 69.2307 12.091C70.3134 10.605 70.9811 9.72252 71.2337 9.44352C71.4924 9.16452 71.9796 9.02502 72.6954 9.02502C72.93 9.02502 73.1856 9.0887 73.4623 9.21607C73.739 9.33738 73.8774 9.47081 73.8774 9.61638C73.8774 9.6649 73.8533 9.70432 73.8052 9.73465C71.4593 12.84 69.748 15.3116 68.6713 17.1494C68.3164 17.768 67.9465 18.3867 67.5615 19.0053C68.0608 18.4898 68.7766 17.865 69.7089 17.1312C70.6473 16.3973 71.5796 15.7574 72.5059 15.2115C73.4383 14.6657 74.1541 14.3927 74.6533 14.3927C75.1526 14.3927 75.5797 14.5565 75.9345 14.884C76.2894 15.2115 76.4669 15.7301 76.4669 16.4397C76.4669 17.3313 76.13 18.2866 75.4563 19.3055C74.7826 20.3184 73.9766 21.2646 73.0383 22.1441C72.1059 23.0235 71.1916 23.7786 70.2954 24.4094C70.9631 24.7127 71.751 24.8643 72.6593 24.8643C73.6879 24.8643 74.5841 24.6126 75.3481 24.1092C76.118 23.5997 76.6894 23.1054 77.0624 22.6262C77.2909 22.3776 77.4503 22.2532 77.5406 22.2532C77.7631 22.2532 77.8744 22.326 77.8744 22.4716C77.8744 22.8476 77.3571 23.5451 76.3225 24.5641C75.5586 25.2919 74.6563 25.9227 73.6157 26.4564C72.5811 26.9841 71.5315 27.3783 70.4668 27.6391C69.4082 27.8999 68.4518 28.0303 67.5976 28.0303C66.2743 28.0303 64.945 27.5451 63.6096 26.5747C62.8276 28.279 62.19 29.7134 61.6968 30.8779C61.2036 32.0485 60.7915 33.0159 60.4607 33.7801C60.1299 34.5443 59.8682 35.0356 59.6757 35.254C59.4833 35.4784 59.2426 35.5906 58.9539 35.5906C58.6712 35.5906 58.4517 35.4268 58.2953 35.0993C58.1389 34.7718 58.0607 34.3897 58.0607 33.953C58.0607 33.6133 58.4306 31.997 59.1705 29.1039C60.0366 27.5087 61.1945 26.0682 62.6442 24.7824L66.966 16.74ZM65.1615 23.7453C65.7149 23.4966 66.2442 23.3723 66.7495 23.3723C67.2668 23.3723 67.9074 23.5572 68.6713 23.9272C69.6157 23.2358 70.4758 22.4018 71.2518 21.4253C72.0277 20.4488 72.4849 19.6937 72.6232 19.16V18.5959C72.4789 18.2017 72.1721 18.0045 71.7029 18.0045C70.9992 18.0045 70.0157 18.5868 68.7525 19.7513C67.4893 20.9158 66.2923 22.2472 65.1615 23.7453Z" fill="#FF3E18"/>
<path d="M81.0414 18.6323C80.097 18.881 79.1977 19.0053 78.3436 19.0053C78.0248 19.0053 77.8654 18.8082 77.8654 18.414C77.8654 18.2866 77.9255 18.1865 78.0458 18.1137C78.1661 18.0409 78.4067 17.9409 78.7676 17.8135C79.1346 17.6861 79.4534 17.5648 79.724 17.4496C79.9947 17.3343 80.3496 17.1342 80.7887 16.8491C82.1481 15.9575 83.3421 15.1114 84.3707 14.3108C84.7256 14.0561 85.1918 13.6649 85.7692 13.1372C86.3527 12.6035 86.7497 12.3366 86.9602 12.3366C87.3031 12.3366 87.6339 12.5155 87.9527 12.8734C88.2775 13.2252 88.5241 13.8044 88.6926 14.6111C87.4354 15.3874 86.5151 15.9879 85.9316 16.4124C85.3542 16.8309 84.9241 17.2009 84.6414 17.5224C84.3647 17.8438 84.0038 18.3381 83.5587 19.0053C83.1015 19.6725 82.7406 20.2942 82.476 20.8704C82.2113 21.4466 82.079 22.1441 82.079 22.9629C82.079 24.1759 82.3496 24.7824 82.891 24.7824C83.2278 24.7824 83.5737 24.5337 83.9286 24.0364C83.9286 22.7566 84.1391 21.6952 84.5602 20.8522C84.9812 20.0091 85.4865 19.3935 86.076 19.0053C86.6715 18.6111 87.2249 18.414 87.7361 18.414C87.9587 18.414 88.1843 18.5444 88.4128 18.8052C88.6474 19.0599 88.7647 19.4754 88.7647 20.0516C88.7647 20.282 88.7286 20.5671 88.6565 20.9067C89.9497 20.2092 91.7362 18.135 94.0159 14.6839C94.3828 14.138 94.7016 13.8651 94.9723 13.8651C95.2009 13.8651 95.4295 14.1046 95.658 14.5838C95.8926 15.0569 96.0099 15.4754 96.0099 15.8393C96.0099 16.1486 95.9167 16.4246 95.7302 16.6672C95.5498 16.9098 95.1889 17.304 94.6475 17.8499C93.7994 18.7354 93.1106 19.5451 92.5813 20.279C92.058 21.0068 91.7963 21.7892 91.7963 22.6262C91.7963 23.6694 92.1302 24.1911 92.7979 24.1911C93.7121 24.1911 94.6595 23.718 95.64 22.7718C95.9227 22.4989 96.1332 22.3624 96.2716 22.3624C96.5663 22.3624 96.7137 22.4503 96.7137 22.6262C96.7137 23.0205 96.0971 23.8029 94.864 24.9735C93.7573 25.9924 92.8911 26.7354 92.2655 27.2024C91.646 27.6755 91.0084 27.9121 90.3527 27.9121C89.7813 27.9121 89.3241 27.7271 88.9813 27.3571C88.6444 26.9932 88.476 26.508 88.476 25.9014C88.476 24.5004 88.7708 23.2479 89.3602 22.1441C89.0775 22.4291 88.7316 22.6384 88.3226 22.7718C88.1662 22.8385 88.064 22.884 88.0158 22.9083C87.9737 22.9265 87.9286 22.9447 87.8805 22.9629C87.4835 23.5815 86.9452 24.2062 86.2655 24.837C85.5858 25.4678 84.9091 25.9833 84.2354 26.3836C83.5677 26.7839 83.0323 26.9841 82.6293 26.9841C82.0699 26.9841 81.4985 26.4898 80.915 25.5011C80.3376 24.5125 80.0489 23.4056 80.0489 22.1804C80.0489 21.1554 80.3797 19.9727 81.0414 18.6323Z" fill="#FF3E18"/>
<path d="M99.9979 21.8438C99.9979 23.8029 100.723 24.7824 102.172 24.7824C103.069 24.7824 104.314 24.2608 105.908 23.2176C106.587 22.7748 107.123 22.3988 107.514 22.0895C107.911 21.7741 108.163 21.6164 108.272 21.6164C108.422 21.6164 108.497 21.8044 108.497 22.1804C108.497 22.3442 108.076 22.8779 107.234 23.7817C106.254 24.8067 105.135 25.7892 103.878 26.7293C102.627 27.6694 101.417 28.1395 100.251 28.1395C99.2581 28.1395 98.419 27.7604 97.7332 27.0023C97.0475 26.2502 96.7047 25.2009 96.7047 23.8544C96.7047 22.7809 96.9904 21.6042 97.5618 20.3245C98.1332 19.0447 98.8881 17.8469 99.8265 16.7309C100.771 15.6149 101.808 14.7111 102.939 14.0197C104.07 13.3222 105.171 12.9735 106.242 12.9735C107.042 12.9735 107.604 13.1645 107.929 13.5466C108.254 13.9227 108.416 14.3412 108.416 14.8021C108.416 15.5906 107.983 16.5004 107.117 17.5315C106.257 18.5565 105.168 19.4784 103.851 20.2972C102.533 21.1099 101.249 21.6255 99.9979 21.8438ZM99.9979 20.461C100.642 20.2851 101.393 19.9242 102.254 19.3783C103.114 18.8324 103.845 18.2381 104.446 17.5951C105.048 16.9462 105.348 16.3851 105.348 15.9121C105.348 15.2691 105.09 14.9477 104.572 14.9477C103.736 14.9477 102.849 15.5633 101.911 16.7945C100.972 18.0197 100.335 19.2419 99.9979 20.461Z" fill="#FF3E18"/>
<path d="M123.983 16.74L118.263 21.8074C117.89 22.1531 117.631 22.326 117.487 22.326C117.318 22.326 117.219 22.2775 117.189 22.1804V21.8802C117.231 21.7528 117.562 21.3677 118.181 20.7248C118.807 20.0758 120.275 18.6111 122.584 16.3306C123.95 14.9901 125.171 13.577 126.248 12.091C127.33 10.605 127.998 9.72252 128.251 9.44352C128.509 9.16452 128.996 9.02502 129.712 9.02502C129.947 9.02502 130.203 9.0887 130.479 9.21607C130.756 9.33738 130.894 9.47081 130.894 9.61638C130.894 9.6649 130.87 9.70432 130.822 9.73465C128.476 12.84 126.765 15.3116 125.688 17.1494C125.333 17.768 124.963 18.3867 124.578 19.0053C125.078 18.4898 125.793 17.865 126.726 17.1312C127.664 16.3973 128.596 15.7574 129.523 15.2115C130.455 14.6657 131.171 14.3927 131.67 14.3927C132.169 14.3927 132.597 14.5565 132.951 14.884C133.306 15.2115 133.484 15.7301 133.484 16.4397C133.484 17.3313 133.147 18.2866 132.473 19.3055C131.8 20.3184 130.993 21.2646 130.055 22.1441C129.123 23.0235 128.209 23.7786 127.312 24.4094C127.98 24.7127 128.768 24.8643 129.676 24.8643C130.705 24.8643 131.601 24.6126 132.365 24.1092C133.135 23.5997 133.706 23.1054 134.079 22.6262C134.308 22.3776 134.467 22.2532 134.557 22.2532C134.78 22.2532 134.891 22.326 134.891 22.4716C134.891 22.8476 134.374 23.5451 133.339 24.5641C132.575 25.2919 131.673 25.9227 130.633 26.4564C129.598 26.9841 128.548 27.3783 127.484 27.6391C126.425 27.8999 125.469 28.0303 124.614 28.0303C123.291 28.0303 121.962 27.5451 120.626 26.5747C119.845 28.279 119.207 29.7134 118.714 30.8779C118.22 32.0485 117.808 33.0159 117.478 33.7801C117.147 34.5443 116.885 35.0356 116.693 35.254C116.5 35.4784 116.26 35.5906 115.971 35.5906C115.688 35.5906 115.469 35.4268 115.312 35.0993C115.156 34.7718 115.078 34.3897 115.078 33.953C115.078 33.6133 115.447 31.997 116.187 29.1039C117.054 27.5087 118.211 26.0682 119.661 24.7824L123.983 16.74ZM122.178 23.7453C122.732 23.4966 123.261 23.3723 123.766 23.3723C124.284 23.3723 124.924 23.5572 125.688 23.9272C126.633 23.2358 127.493 22.4018 128.269 21.4253C129.045 20.4488 129.502 19.6937 129.64 19.16V18.5959C129.496 18.2017 129.189 18.0045 128.72 18.0045C128.016 18.0045 127.033 18.5868 125.769 19.7513C124.506 20.9158 123.309 22.2472 122.178 23.7453Z" fill="#FF3E18"/>
<path d="M138.284 20.1243C137.953 20.7066 137.733 21.1281 137.625 21.3889C137.523 21.6497 137.472 21.95 137.472 22.2896C137.472 22.5747 137.535 22.8082 137.661 22.9901C137.788 23.166 137.92 23.254 138.058 23.254C138.185 23.254 138.624 23.0083 139.376 22.5171C140.127 22.0258 140.639 21.677 140.909 21.4708C141.932 20.7127 142.921 19.909 143.878 19.0599C144.84 18.2047 145.742 17.3525 146.585 16.5034C147.427 15.6543 148.233 14.8385 149.003 14.0561C149.183 13.8317 149.367 13.7195 149.553 13.7195C149.776 13.7195 149.959 13.8741 150.103 14.1835C150.254 14.4867 150.329 14.8021 150.329 15.1296C150.329 15.6634 150.094 16.3093 149.625 17.0675L144.266 25.6467C143.869 26.2775 143.661 26.6353 143.643 26.7202V26.9841C143.715 27.0569 143.764 27.0933 143.788 27.0933C143.986 27.0933 144.233 26.9568 144.527 26.6839L149.589 22.2896C149.932 21.9864 150.167 21.8135 150.293 21.771H150.627C150.747 21.8135 150.807 21.8984 150.807 22.0258C150.807 22.1653 150.711 22.3412 150.518 22.5534L144.013 29.4041C143.297 30.1622 142.371 31.2237 141.234 32.5883C140.097 33.953 139.321 34.8628 138.906 35.3177C138.491 35.7726 138.16 36 137.914 36C137.571 36 137.4 35.1691 137.4 33.5072C137.4 33.3313 137.439 33.1585 137.517 32.9886C137.595 32.8249 137.763 32.5246 138.022 32.0879C138.287 31.6573 138.533 31.2358 138.762 30.8234L142.236 24.4458C142.362 24.1911 142.425 23.9939 142.425 23.8544C142.425 23.7028 142.374 23.627 142.272 23.627C142.2 23.627 142.115 23.6785 142.019 23.7817C141.466 24.2669 140.594 24.9219 139.403 25.7468C138.212 26.5716 137.421 26.9841 137.03 26.9841C136.627 26.9841 136.166 26.4079 135.649 25.2555C135.138 24.097 134.882 23.257 134.882 22.7354C134.882 20.9644 135.583 19.1509 136.985 17.2949C137.243 16.9431 137.712 16.4185 138.392 15.721C139.072 15.0174 139.767 14.3897 140.476 13.8378C141.192 13.2858 141.742 13.0099 142.127 13.0099C142.488 13.0099 142.825 13.1554 143.138 13.4466C143.451 13.7377 143.607 14.0136 143.607 14.2744C143.607 14.6202 143.3 15.2237 142.687 16.0849C142.073 16.9462 141.351 17.7741 140.521 18.5686C139.691 19.3632 138.945 19.8817 138.284 20.1243Z" fill="#FF3E18"/>
<path d="M154.94 23.1084L151.98 26.7566C151.86 26.9083 151.761 26.9841 151.682 26.9841C151.496 26.9841 151.3 26.6475 151.096 25.9742C150.897 25.301 150.798 24.3457 150.798 23.1084C150.798 22.4898 150.822 22.0288 150.87 21.7255C150.991 20.7976 151.436 19.5967 152.206 18.1228C152.976 16.6429 153.8 15.3298 154.678 14.1835C155.562 13.0311 156.179 12.4549 156.528 12.4549C156.756 12.4549 156.967 12.74 157.159 13.3101C157.352 13.8802 157.448 14.4625 157.448 15.0569C157.448 15.4268 157.382 15.724 157.249 15.9484C157.123 16.1668 156.831 16.4913 156.374 16.9219C155.58 17.6983 154.858 18.5686 154.209 19.533C153.559 20.4973 153.234 21.392 153.234 22.2168C153.234 22.3442 153.261 22.5171 153.316 22.7354C154.645 21.0068 156.097 19.4268 157.673 17.9955C159.249 16.5641 160.69 15.445 161.995 14.6384C163.301 13.8256 164.248 13.4193 164.837 13.4193C165.126 13.4193 165.409 13.58 165.686 13.9014C165.962 14.2229 166.101 14.696 166.101 15.3207C166.101 17.5527 165.544 19.1175 164.431 20.0152C163.944 20.0152 163.439 19.903 162.916 19.6785C162.398 19.4481 162.14 19.1751 162.14 18.8597C162.14 18.7991 162.161 18.7384 162.203 18.6778C162.245 18.6111 162.287 18.5595 162.329 18.5231C162.377 18.4867 162.437 18.4382 162.51 18.3776C162.792 18.2381 162.979 18.0015 163.069 17.6679V17.2585C162.985 17.0341 162.786 16.9219 162.473 16.9219C161.86 16.9219 160.991 17.4011 159.866 18.3594C158.747 19.3177 157.845 20.2183 157.159 21.0614C157.731 21.2555 158.209 21.5254 158.594 21.8711C158.985 22.2168 159.406 22.6778 159.857 23.254C160.338 23.8908 160.711 24.3366 160.976 24.5914C161.246 24.8461 161.538 24.9735 161.851 24.9735C162.525 24.9735 163.794 24.2517 165.658 22.8082C166.29 22.3351 166.645 22.0986 166.723 22.0986C166.801 22.0986 166.871 22.141 166.931 22.2259C166.991 22.3108 167.021 22.3927 167.021 22.4716C167.021 22.7445 166.627 23.3177 165.839 24.1911C165.051 25.0644 164.422 25.6983 163.953 26.0925C162.287 27.3298 160.946 27.9484 159.929 27.9484C159.087 27.9484 158.41 27.6725 157.899 27.1205C157.388 26.5686 156.931 25.865 156.528 25.0099C156.185 24.3366 155.923 23.8848 155.743 23.6543C155.562 23.4238 155.294 23.2418 154.94 23.1084Z" fill="#FF3E18"/>
<path d="M175.132 22.1441C174.507 22.9447 173.866 23.6998 173.21 24.4094C172.555 25.113 171.866 25.7377 171.144 26.2835C170.422 26.8234 169.806 27.0933 169.295 27.0933C168.663 27.0933 168.128 26.5777 167.689 25.5466C167.255 24.5155 167.039 23.3177 167.039 21.953C167.039 21.1099 167.4 20.0182 168.122 18.6778C168.843 17.3374 169.704 16.1638 170.702 15.1569C171.701 14.1501 172.573 13.6467 173.319 13.6467C173.722 13.6467 174.08 13.7316 174.392 13.9014C174.711 14.0713 174.871 14.2593 174.871 14.4655C174.871 14.7991 174.636 15.2873 174.167 15.9303C173.704 16.5671 173.135 17.2009 172.462 17.8317C171.788 18.4564 171.162 18.9234 170.585 19.2328C170.146 19.4814 169.851 19.6543 169.701 19.7513C169.574 20.1092 169.511 20.5216 169.511 20.9886C169.541 21.5284 169.652 21.9742 169.845 22.326C170.037 22.6717 170.296 22.8446 170.621 22.8446C170.928 22.8446 171.445 22.6111 172.173 22.1441C172.889 21.6952 173.64 21.0735 174.428 20.279L181.006 13.7195C181.277 13.4466 181.487 13.3101 181.638 13.3101C182.227 13.3101 182.534 13.9924 182.558 15.3571V15.6937C182.558 15.8635 182.51 16.0121 182.414 16.1395L179.12 19.7513C178.308 20.649 177.902 21.583 177.902 22.5534C177.902 23.5724 178.224 24.0819 178.868 24.0819C179.174 24.0819 179.604 23.9515 180.158 23.6907C180.717 23.4299 181.21 23.1478 181.638 22.8446C181.716 22.8082 181.872 22.7142 182.107 22.5625C182.341 22.4109 182.543 22.2836 182.711 22.1804C182.904 22.1804 183 22.2775 183 22.4716C183 22.6535 182.54 23.2024 181.62 24.1183C180.699 25.0341 179.701 25.8772 178.624 26.6475C177.547 27.4177 176.705 27.8029 176.098 27.8029C175.677 27.8029 175.319 27.63 175.024 27.2843C174.729 26.9386 174.582 26.417 174.582 25.7195C174.582 24.7915 174.765 23.5997 175.132 22.1441Z" fill="#FF3E18"/>
</svg>
