<svg width="452" height="38" fill="none" xmlns="http://www.w3.org/2000/svg"><path d="M18.748 2.316l4.316 2.392-7.228 12.896c.468-.52.988-.832 1.716-.832.468 0 .988.052 1.456.104.468.052.936.052 1.404 0C26.652 16.46 33.516 5.488 35.856.808l4.316 2.236c-2.444 4.628-7.176 11.7-14.612 15.028-4.108 1.82-5.928.884-5.928 3.12 0 4.16 1.612 11.96 4.576 11.96 2.028 0 5.72-2.444 6.812-3.224l-1.248 3.796C26.444 36.324 24.26 37 22.856 37c-5.564 0-7.852-8.06-7.852-13.936 0-1.456.052-2.964.208-4.42l-9.464 18.98-4.836-1.508 17.836-33.8zm28.617 13.208l.832 3.016c-6.344 2.028-11.492 8.216-11.492 12.324 0 2.132 1.248 2.756 2.288 2.756 2.964 0 7.124-4.576 7.124-10.712 0-.676 0-1.352-.104-2.028l4.68-1.3c.156.78.208 1.508.208 2.288 0 7.592-6.5 15.132-13.26 15.132-4.576 0-5.668-2.912-5.668-5.616 0-6.292 6.292-12.636 15.392-15.86zm21.16.208l3.224 1.82-4.628 9.256c-1.092 2.184-1.352 2.756-1.456 3.432 0 .156-.052.312 0 .468.052.26.156.312.364.312 2.184 0 8.424-7.332 12.012-13.52l3.432 1.82-4.888 8.944c-.416.78-1.3 2.444-1.3 3.172 0 .624.312.988.884.988 1.092 0 2.496-.936 5.304-2.236l-1.144 3.536C78.925 34.66 74.921 37 73.101 37c-1.716 0-2.652-1.196-2.652-2.34 0-1.664 1.352-3.848 2.392-5.512l-.468-.364c-7.124 7.54-8.788 8.528-9.932 8.528-1.248 0-2.236-.936-2.236-2.288 0-1.872 2.132-5.616 2.964-6.968l-.572-.208C59.685 31.332 55.473 37 51.73 37c-1.456 0-3.744-.78-3.744-3.38 0-.832.052-1.456.312-2.132l4.056-1.976c-.052.26-.26.988-.26 1.664 0 .676.156 1.56 1.196 1.56 2.34 0 11.18-10.14 15.236-17.004zm32.335 2.496l3.484 1.768-5.564 10.556c-.104.208-.312.676-.312 1.04 0 .208.104.832.78.832.988 0 2.184-.988 4.94-2.236l-1.144 3.536C101.64 34.608 97.168 37 95.556 37c-1.092 0-2.08-.676-2.288-2.028a2.827 2.827 0 010-.936c.156-1.404 1.144-3.016 2.86-5.512l-.208-.26C92.072 31.384 87.34 37 83.908 37c-.936 0-2.288-.572-2.288-2.652 0-1.872 1.248-4.42 8.684-18.356l3.536 1.82-6.084 11.492c-.26.468-.416.78-.468 1.092v.26c.052.52.364.624.572.624 2.704 0 11.128-9.828 13-13.052zm21.654 6.5l-3.328-1.976c.26-.416.728-1.456.728-1.82 0-.364-.416-.78-1.092-.78-2.288 0-8.32 6.76-8.32 11.284 0 .78.572 1.924 2.132 1.924.936 0 2.86-.052 9.88-3.172l-1.144 3.536C116.378 35.96 113.31 37 110.346 37c-3.484 0-5.096-1.82-5.096-4.94 0-6.344 8.84-15.6 15.964-15.6 2.86 0 3.588 2.236 3.588 3.9 0 1.56-1.196 3.328-2.288 4.368zm18.231 0l-3.328-1.976c.26-.416.728-1.456.728-1.82 0-.364-.416-.78-1.092-.78-2.288 0-8.32 6.76-8.32 11.284 0 .78.572 1.924 2.132 1.924.936 0 2.86-.052 9.88-3.172l-1.144 3.536C134.609 35.96 131.541 37 128.577 37c-3.484 0-5.096-1.82-5.096-4.94 0-6.344 8.84-15.6 15.964-15.6 2.86 0 3.588 2.236 3.588 3.9 0 1.56-1.196 3.328-2.288 4.368zm19.478-6.5l3.484 1.768-5.564 10.556c-.104.208-.312.676-.312 1.04 0 .208.104.832.78.832.988 0 2.184-.988 4.94-2.236l-1.144 3.536c-1.404.884-5.876 3.276-7.488 3.276-1.092 0-2.08-.676-2.288-2.028a2.828 2.828 0 010-.936c.156-1.404 1.144-3.016 2.86-5.512l-.208-.26c-3.848 3.12-8.58 8.736-12.012 8.736-.936 0-2.288-.572-2.288-2.652 0-1.872 1.248-4.42 8.684-18.356l3.536 1.82-6.084 11.492c-.26.468-.416.78-.468 1.092v.26c.052.52.364.624.572.624 2.704 0 11.128-9.828 13-13.052zm19.783-2.704l.832 3.016c-6.344 2.028-11.492 8.216-11.492 12.324 0 2.132 1.248 2.756 2.288 2.756 2.964 0 7.124-4.576 7.124-10.712 0-.676 0-1.352-.104-2.028l4.68-1.3c.156.78.208 1.508.208 2.288 0 7.592-6.5 15.132-13.26 15.132-4.576 0-5.668-2.912-5.668-5.616 0-6.292 6.292-12.636 15.392-15.86zm12.58.624l3.588 1.664-4.264 8.216c1.456-.468 4.68-.988 6.136-1.04h.988l3.38-7.124 3.64 1.56-4.784 9.672c-.208.468-1.04 2.236-1.04 2.756 0 .26.052.832.78.832 1.248 0 4.264-1.768 5.824-2.496l-1.04 3.536c-4.992 2.86-6.812 3.276-7.54 3.276-1.82 0-3.172-1.196-3.172-3.068 0-1.3.884-2.756 2.548-6.084-1.924.156-4.992.884-7.176 1.612l-3.848 7.904-4.212-1.3 10.192-19.916zm23.461 0l3.588 1.664-4.264 8.216c1.456-.468 4.68-.988 6.136-1.04h.988l3.38-7.124 3.64 1.56-4.784 9.672c-.208.468-1.04 2.236-1.04 2.756 0 .26.052.832.78.832 1.248 0 4.264-1.768 5.824-2.496l-1.04 3.536c-4.992 2.86-6.812 3.276-7.54 3.276-1.82 0-3.172-1.196-3.172-3.068 0-1.3.884-2.756 2.548-6.084-1.924.156-4.992.884-7.176 1.612l-3.848 7.904-4.212-1.3 10.192-19.916zm22.525-.104l3.536 1.82c-6.604 10.92-7.228 13.156-7.228 14.456 0 1.196.728 1.768 1.404 1.768 2.548 0 5.772-4.836 5.98-6.396v-.104a.224.224 0 00-.208-.208h-.208c-1.612.208-1.82.26-2.028.26-.208 0-.468-.26-.572-.468l-.52-1.196c-.468-1.144 2.912-2.704 4.004-2.704 1.612 0 2.548.208 3.328.936 3.432-.416 7.904-2.808 9.516-5.98l3.38 1.82-4.732 8.476c-.364.624-1.456 2.756-1.456 3.432 0 .572.208.884.832.884.78 0 2.756-.936 5.2-2.652l-1.144 3.536c-1.82 1.508-4.888 3.276-7.228 3.276-1.82 0-2.756-.936-2.756-2.496 0-2.288 3.068-7.54 4.888-9.724l-.312-.26c-2.392 1.04-1.612 1.196-3.952 1.768-.52.156-.988.26-1.196.364-.26.104-.208.26-.208.52-.052 3.38-5.564 9.828-10.972 9.828-2.808 0-5.096-2.132-5.096-4.888 0-3.952 4.784-11.492 7.748-16.068zm39.769 2.184l3.484 1.768-5.564 10.556c-.104.208-.312.676-.312 1.04 0 .208.104.832.78.832.988 0 2.184-.988 4.94-2.236l-1.144 3.536c-1.404.884-5.876 3.276-7.488 3.276-1.092 0-2.08-.676-2.288-2.028a2.827 2.827 0 010-.936c.156-1.404 1.144-3.016 2.86-5.512l-.208-.26c-3.848 3.12-8.58 8.736-12.012 8.736-.936 0-2.288-.572-2.288-2.652 0-1.872 1.248-4.42 8.684-18.356l3.536 1.82-6.084 11.492c-.26.468-.416.78-.468 1.092v.26c.052.52.364.624.572.624 2.704 0 11.128-9.828 13-13.052zM271.685 6.32l4.264-.208c0 1.144.26 3.536 2.86 3.536.572 0 2.652-.312 5.72-4.004l2.08 1.664c-3.432 3.38-5.148 5.304-9.412 5.304-5.044 0-5.46-4.16-5.512-5.2V6.32zm40.083 9.412l3.224 1.82-4.628 9.256c-1.092 2.184-1.352 2.756-1.456 3.432 0 .156-.052.312 0 .468.052.26.156.312.364.312 2.184 0 8.424-7.332 12.012-13.52l3.432 1.82-4.888 8.944c-.416.78-1.3 2.444-1.3 3.172 0 .624.312.988.884.988 1.092 0 2.496-.936 5.304-2.236l-1.144 3.536c-1.404.936-5.408 3.276-7.228 3.276-1.716 0-2.652-1.196-2.652-2.34 0-1.664 1.352-3.848 2.392-5.512l-.468-.364c-7.124 7.54-8.788 8.528-9.932 8.528-1.248 0-2.236-.936-2.236-2.288 0-1.872 2.132-5.616 2.964-6.968l-.572-.208C302.928 31.332 298.716 37 294.972 37c-1.456 0-3.744-.78-3.744-3.38 0-.832.052-1.456.312-2.132l4.056-1.976c-.052.26-.26.988-.26 1.664 0 .676.156 1.56 1.196 1.56 2.34 0 11.18-10.14 15.236-17.004zm33.842 1.924l3.744 1.976-4.576 8.944c-.26.52-1.196 2.548-1.196 3.12 0 .312.156.936.676.936.884 0 4.68-2.028 5.408-2.444l-1.092 3.536c-1.508 1.144-4.888 3.276-6.812 3.276-1.664 0-2.912-1.144-2.912-2.496 0-1.248.78-2.548 1.248-3.744l-.208-.052C338.278 31.852 334.118 37 329.75 37c-1.872 0-4.16-1.508-4.16-5.252 0-4.836 8.424-14.82 14.976-14.82 2.496 0 3.848 1.144 4.472 1.872l.572-1.144zm-4.264 8.112l2.652-4.992a2.957 2.957 0 00-2.34-1.092c-4.004 0-10.816 7.436-10.816 10.972 0 1.768.78 2.236 1.508 2.236 2.236 0 8.008-5.252 8.996-7.124zm13.441-3.848l-1.352-2.236c4.108-2.496 6.76-2.808 8.06-2.808 2.236 0 2.964 1.248 2.964 2.6 0 2.444-2.08 4.264-3.952 6.032-5.2 4.992-5.408 6.188-5.408 6.708 0 .416.416.988 1.144.988 1.196 0 4.888-1.716 7.02-3.016l-1.092 3.536c-1.82 1.248-5.668 3.276-8.372 3.276-2.756 0-3.952-1.508-3.952-3.172 0-1.872 1.3-4.68 6.292-9.464 1.144-1.092 3.224-2.704 3.224-3.536a.5.5 0 00-.364-.468 1.068 1.068 0 00-.572 0c-.884.156-1.612.572-3.64 1.56zm29.366-4.264l3.744 1.976-4.576 8.944c-.26.52-1.196 2.548-1.196 3.12 0 .312.156.936.676.936.884 0 4.68-2.028 5.408-2.444l-1.092 3.536c-1.508 1.144-4.888 3.276-6.812 3.276-1.664 0-2.912-1.144-2.912-2.496 0-1.248.78-2.548 1.248-3.744l-.208-.052c-1.612 1.144-5.772 6.292-10.14 6.292-1.872 0-4.16-1.508-4.16-5.252 0-4.836 8.424-14.82 14.976-14.82 2.496 0 3.848 1.144 4.472 1.872l.572-1.144zm-4.264 8.112l2.652-4.992a2.957 2.957 0 00-2.34-1.092c-4.004 0-10.816 7.436-10.816 10.972 0 1.768.78 2.236 1.508 2.236 2.236 0 8.008-5.252 8.996-7.124zm14.949-3.38l-1.716-2.08c2.288-2.132 5.876-4.108 8.84-4.108 2.912 0 4.316 1.768 4.316 3.744 0 3.64-4.264 5.928-7.228 6.448v.208h.312c1.3 0 3.9.104 3.9 2.964 0 3.848-5.512 7.436-10.348 7.436-2.704 0-5.98-1.144-5.98-4.472 0-.208 0-1.04.26-1.976l4.004-1.664c-.26 1.404-.312 1.82-.312 2.08 0 1.092.468 2.756 2.808 2.756s4.836-2.548 4.836-4.472c0-1.248-1.352-1.196-1.664-1.196-.468 0-.936 0-1.404.104l-.624-2.496c3.016-.988 7.02-2.652 7.02-5.252 0-.52-.364-.884-1.3-.884-1.508 0-4.836 2.236-5.72 2.86zm29.956-4.16l3.484 1.768-5.564 10.556c-.104.208-.312.676-.312 1.04 0 .208.104.832.78.832.988 0 2.184-.988 4.94-2.236l-1.144 3.536c-1.404.884-5.876 3.276-7.488 3.276-1.092 0-2.08-.676-2.288-2.028a2.827 2.827 0 010-.936c.156-1.404 1.144-3.016 2.86-5.512l-.208-.26c-3.848 3.12-8.58 8.736-12.012 8.736-.936 0-2.288-.572-2.288-2.652 0-1.872 1.248-4.42 8.684-18.356l3.536 1.82-6.084 11.492c-.26.468-.416.78-.468 1.092v.26c.052.52.364.624.572.624 2.704 0 11.128-9.828 13-13.052zm12.71-2.08l3.588 1.664-4.264 8.216c1.456-.468 4.68-.988 6.136-1.04h.988l3.38-7.124 3.64 1.56-4.784 9.672c-.208.468-1.04 2.236-1.04 2.756 0 .26.052.832.78.832 1.248 0 4.264-1.768 5.824-2.496l-1.04 3.536C445.72 36.584 443.9 37 443.172 37c-1.82 0-3.172-1.196-3.172-3.068 0-1.3.884-2.756 2.548-6.084-1.924.156-4.992.884-7.176 1.612l-3.848 7.904-4.212-1.3 10.192-19.916z" fill="#FF3E18"/></svg>